<?xml version="1.0" encoding="UTF-8"?> <svg xmlns="http://www.w3.org/2000/svg" width="1493" height="399" viewBox="0 0 1493 399" fill="none"><path d="M181.579 242.123H152.017L85.2128 39.7253H126.149L166.803 171.62L207.454 39.7253H248.675L181.579 242.123Z" fill="white"></path><path d="M850.815 74.9741H813.57V128.415H850.815C868.16 128.415 879.535 117.334 879.535 101.694C879.535 86.0568 868.16 74.9741 850.815 74.9741ZM881.52 242.122L842.003 161.39H813.57V242.122H774.066V39.7248H853.382C894.596 39.7248 919.043 67.8688 919.043 101.694C919.043 130.126 901.712 147.746 882.087 154.846L927.287 242.122H881.52Z" fill="white"></path><path d="M1034.7 99.4208L1009.12 173.049H1059.44L1034.7 99.4208ZM1081.89 242.122L1069.95 206.306H998.032L985.802 242.122H944.582L1018.22 39.7261H1049.19L1123.12 242.122H1081.89Z" fill="white"></path><path d="M1271.71 242.123L1191.54 117.905V242.123H1152.03V39.7253H1187.28L1267.45 163.668V39.7253H1306.96V242.123H1271.71Z" fill="white"></path><path d="M680.652 312.658V377.12H669.33V312.658H648.79V302.492H701.192V312.658H680.652Z" fill="white"></path><path d="M732.318 335.927C730.322 333.938 727.598 332.887 724.454 332.887C721.31 332.887 718.687 333.938 716.696 335.927C713.447 339.178 713.027 344.731 713.027 350.497C713.027 356.258 713.447 361.815 716.696 365.066C718.687 367.057 721.31 368.21 724.454 368.21C727.598 368.21 730.322 367.057 732.318 365.066C735.563 361.815 735.982 356.258 735.982 350.497C735.982 344.731 735.563 339.178 732.318 335.927ZM740.386 371.459C736.926 375.022 731.684 377.747 724.454 377.747C717.223 377.747 712.083 375.022 708.628 371.459C703.598 366.219 702.338 359.51 702.338 350.497C702.338 341.587 703.598 334.882 708.628 329.641C712.083 326.074 717.223 323.349 724.454 323.349C731.684 323.349 736.926 326.074 740.386 329.641C745.416 334.882 746.672 341.587 746.672 350.497C746.672 359.51 745.416 366.219 740.386 371.459Z" fill="white"></path><path d="M793.161 377.12V371.772C789.492 375.757 784.353 377.748 779.011 377.748C773.56 377.748 769.055 375.967 765.907 372.925C761.819 368.944 760.563 363.913 760.563 357.937V323.977H771.253V356.367C771.253 364.648 775.968 368.209 781.944 368.209C787.92 368.209 792.952 364.54 792.952 356.367V323.977H803.643V377.12H793.161Z" fill="white"></path><path d="M849.452 336.453C847.043 334.039 845.155 332.887 841.485 332.887C835.725 332.887 830.903 337.499 830.903 344.837V377.12H820.211V323.977H830.693V329.743C833.419 325.972 838.869 323.349 844.844 323.349C849.979 323.349 853.856 324.711 857.525 328.38L849.452 336.453Z" fill="white"></path><path d="M930.776 316.643C928.157 313.811 924.071 312.03 919.667 312.03C915.263 312.03 911.175 313.811 908.557 316.643C904.888 320.623 904.153 324.818 904.153 339.806C904.153 354.793 904.888 358.983 908.557 362.969C911.175 365.801 915.263 367.582 919.667 367.582C924.071 367.582 928.157 365.801 930.776 362.969C934.445 358.983 935.18 354.793 935.18 339.806C935.18 324.818 934.445 320.623 930.776 316.643ZM939.369 369.782C934.236 374.915 927.632 377.747 919.667 377.747C911.7 377.747 905.199 374.915 900.065 369.782C892.728 362.443 892.835 354.166 892.835 339.806C892.835 325.446 892.728 317.165 900.065 309.831C905.199 304.691 911.7 301.865 919.667 301.865C927.632 301.865 934.236 304.691 939.369 309.831C946.707 317.165 946.499 325.446 946.499 339.806C946.499 354.166 946.707 362.443 939.369 369.782Z" fill="white"></path><path d="M984.03 332.887C974.386 332.887 972.921 341.062 972.921 350.496C972.921 359.927 974.386 368.21 984.03 368.21C993.674 368.21 995.038 359.927 995.038 350.496C995.038 341.062 993.674 332.887 984.03 332.887ZM999.753 373.031C996.819 375.967 992.206 377.748 986.862 377.748C981.198 377.748 976.799 376.278 972.921 371.67V398.603H962.23V323.976H972.713V329.64C976.693 324.818 980.99 323.35 986.755 323.35C992.103 323.35 996.819 325.13 999.753 328.064C1005.1 333.412 1005.73 342.423 1005.73 350.496C1005.73 358.566 1005.1 367.684 999.753 373.031Z" fill="white"></path><path d="M1050.84 338.969C1049.16 334.984 1045.39 332.258 1040.36 332.258C1035.33 332.258 1031.45 334.984 1029.77 338.969C1028.72 341.378 1028.51 342.949 1028.41 346.2H1052.31C1052.2 342.949 1051.89 341.378 1050.84 338.969ZM1028.41 353.641C1028.41 362.76 1033.23 368.526 1041.93 368.526C1047.91 368.526 1051.05 366.846 1054.82 363.076L1061.63 369.465C1056.18 374.916 1051.05 377.748 1041.72 377.748C1028.41 377.748 1017.82 370.725 1017.82 350.497C1017.82 333.305 1026.73 323.349 1040.36 323.349C1054.61 323.349 1062.89 333.83 1062.89 348.925V353.641H1028.41Z" fill="white"></path><path d="M1106.13 336.453C1103.72 334.039 1101.83 332.887 1098.16 332.887C1092.4 332.887 1087.58 337.499 1087.58 344.837V377.12H1076.89V323.977H1087.37V329.743C1090.09 325.972 1095.54 323.349 1101.52 323.349C1106.65 323.349 1110.53 324.711 1114.2 328.38L1106.13 336.453Z" fill="white"></path><path d="M1153.92 353.641H1141.45C1135.16 353.641 1131.91 356.473 1131.91 361.29C1131.91 366.113 1134.95 368.837 1141.66 368.837C1145.75 368.837 1148.79 368.526 1151.62 365.801C1153.19 364.223 1153.92 361.714 1153.92 357.938V353.641ZM1154.14 377.119V372.297C1150.26 376.175 1146.59 377.747 1139.99 377.747C1133.38 377.747 1128.98 376.175 1125.73 372.925C1123 370.098 1121.54 366.009 1121.54 361.499C1121.54 352.594 1127.72 346.199 1139.88 346.199H1153.92V342.423C1153.92 335.718 1150.57 332.467 1142.29 332.467C1136.42 332.467 1133.59 333.83 1130.66 337.606L1123.64 331.002C1128.67 325.129 1133.91 323.349 1142.71 323.349C1157.28 323.349 1164.61 329.534 1164.61 341.587V377.119H1154.14Z" fill="white"></path><path d="M1196.7 377.12C1186.74 377.12 1182.13 369.991 1182.13 362.341V333.095H1176.05V324.921H1182.13V308.78H1192.82V324.921H1203.09V333.095H1192.82V361.815C1192.82 365.695 1194.71 368 1198.7 368H1203.09V377.12H1196.7Z" fill="white"></path><path d="M1243.28 335.927C1241.28 333.938 1238.56 332.887 1235.41 332.887C1232.27 332.887 1229.65 333.938 1227.66 335.927C1224.41 339.178 1223.99 344.731 1223.99 350.497C1223.99 356.258 1224.41 361.815 1227.66 365.066C1229.65 367.057 1232.27 368.21 1235.41 368.21C1238.56 368.21 1241.28 367.057 1243.28 365.066C1246.52 361.815 1246.95 356.258 1246.95 350.497C1246.95 344.731 1246.52 339.178 1243.28 335.927ZM1251.35 371.459C1247.89 375.022 1242.64 377.747 1235.41 377.747C1228.18 377.747 1223.05 375.022 1219.59 371.459C1214.56 366.219 1213.3 359.51 1213.3 350.497C1213.3 341.587 1214.56 334.882 1219.59 329.641C1223.05 326.074 1228.18 323.349 1235.41 323.349C1242.64 323.349 1247.89 326.074 1251.35 329.641C1256.38 334.882 1257.63 341.587 1257.63 350.497C1257.63 359.51 1256.38 366.219 1251.35 371.459Z" fill="white"></path><path d="M1301.33 336.453C1298.92 334.039 1297.03 332.887 1293.36 332.887C1287.6 332.887 1282.78 337.499 1282.78 344.837V377.12H1272.09V323.977H1282.57V329.743C1285.3 325.972 1290.75 323.349 1296.72 323.349C1301.86 323.349 1305.73 324.711 1309.4 328.38L1301.33 336.453Z" fill="white"></path><path d="M286.999 92.8307C293.215 116.013 305.861 134.944 325.375 146.672C382.168 180.781 441.4 168.296 494.36 124.253C442.008 170.025 379.449 187.947 326.905 165.441C308.327 157.48 292.548 145.119 279.783 129.401C271.48 119.175 264.445 107.549 258.747 94.7653C262.121 116.739 269.3 136.492 280.245 152.852C280.249 152.871 280.252 152.893 280.252 152.913C288.705 165.543 299.413 176.135 312.379 184.135C357.919 212.259 456.243 188.012 541.472 97.0586H541.483C541.691 96.84 541.895 96.616 542.095 96.3933C542.388 96.0853 542.668 95.78 542.956 95.468C543.977 94.3666 544.997 93.26 546.019 92.1347C546.123 92.0227 546.229 91.9106 546.327 91.7986V91.7866C549.917 87.8266 553.483 83.7453 557.019 79.5466L545.723 90.2C526.336 37.8226 475.969 0.481277 416.841 0.481277C356.739 0.481277 305.653 39.0747 286.999 92.8307Z" fill="url(#paint0_linear)"></path><path d="M599.535 89.6227L602.302 86.5307L593.931 63.6L597.55 59.564L593.969 56.3693L592.071 58.4933L589.737 52.0987L593.681 47.692C595.165 46.0267 597.345 41.5627 596.466 39.6787C594.486 39 590.29 41.6733 588.807 43.3333L584.863 47.7427L578.251 46.1333L580.158 44.008L576.577 40.8147L572.963 44.8453L549.247 39.0893L546.486 42.176L574.587 57.828L563.793 71.784L554.455 69.928L552.121 72.5333L560.162 76.4813L559.111 77.8347L562.686 81.0293L563.923 79.8387L568.731 87.3907L571.066 84.7867L568.187 75.7053L580.855 63.436L599.535 89.6227Z" fill="white"></path><path d="M544.865 108.919C467.263 209.871 384.587 253.107 325.68 240.679C349.937 262.209 381.856 275.301 416.841 275.301C477.731 275.301 529.363 235.697 547.401 180.851C498.187 220.175 436.697 243.547 369.968 243.547C369.673 243.547 369.377 243.537 369.075 243.537C369.259 243.519 369.444 243.499 369.627 243.476C444.101 234.595 508.512 197.164 554.157 142.859C554.213 141.213 554.261 139.552 554.261 137.883C554.261 125.64 552.624 113.773 549.615 102.476C548.051 104.629 546.507 106.787 544.865 108.919Z" fill="url(#paint1_linear)"></path><path d="M327.976 67.256C327.976 95.1747 367.572 117.808 416.431 117.808C465.288 117.808 504.893 95.1747 504.893 67.256C504.893 39.34 465.288 16.7067 416.431 16.7067C367.572 16.7067 327.976 39.34 327.976 67.256Z" fill="url(#paint2_radial)"></path><path d="M24.416 96.0862C17.1427 96.0862 10.3813 93.9608 4.65735 90.3435V242.122H44.1747V90.3435C38.4507 93.9608 31.6894 96.0862 24.416 96.0862Z" fill="white"></path><path d="M48.5463 59.0328C48.5463 72.3555 37.7436 83.1595 24.4156 83.1595C11.0863 83.1595 0.286255 72.3555 0.286255 59.0328C0.286255 45.7008 11.0863 34.8982 24.4156 34.8982C37.7436 34.8982 48.5463 45.7008 48.5463 59.0328Z" fill="white"></path><path d="M1438.52 123.871L1414.65 120.454C1406.4 119.319 1399.86 116.194 1395.88 112.502C1391.62 108.521 1389.92 103.118 1389.92 97.998C1389.92 84.07 1400.15 72.4114 1421.19 72.4114C1434.14 72.4114 1448.96 74.054 1461.51 85.2927C1459.63 82.4287 1458.53 79.01 1458.53 75.3287C1458.53 65.274 1466.68 57.122 1476.73 57.122C1479.72 57.122 1482.53 57.8567 1485.02 59.1287C1468.27 44.182 1448.75 38.018 1422.33 38.018C1378.55 38.018 1351.82 63.3167 1351.82 99.4207C1351.82 116.473 1356.65 129.55 1366.33 139.222C1375.42 148.03 1388.21 153.434 1405.55 155.991L1430 159.403C1439.38 160.823 1443.93 162.813 1447.91 166.506C1452.18 170.486 1454.16 176.461 1454.16 183.558C1454.16 199.769 1441.66 208.585 1418.34 208.585C1399.58 208.585 1382.24 204.317 1369.44 191.523L1343.86 217.11C1363.76 237.295 1387.07 243.834 1417.77 243.834C1460.13 243.834 1492.83 221.658 1492.83 182.423C1492.83 164.519 1487.99 149.741 1477.19 139.51C1468.66 131.55 1457.01 126.43 1438.52 123.871Z" fill="white"></path><path d="M607.756 39.7255L620.634 74.9748H653.562V242.123H693.078V74.9748H746.562V39.7255H607.756Z" fill="white"></path><path d="M1477.08 72.3049H1475.59V74.7782H1477.08C1477.88 74.7782 1478.4 74.2169 1478.4 73.5422C1478.4 72.8729 1477.88 72.3049 1477.08 72.3049ZM1478.35 80.0849L1476.61 76.3916H1475.59V80.0849H1473.46V70.5436H1477.35C1479.29 70.5436 1480.52 71.9556 1480.52 73.5422C1480.52 74.8582 1479.69 75.6996 1478.77 76.0716L1480.78 80.0849H1478.35ZM1476.73 68.3622C1472.87 68.3622 1469.89 71.3369 1469.89 75.3289C1469.89 79.3129 1472.87 82.2929 1476.73 82.2929C1480.6 82.2929 1483.58 79.3129 1483.58 75.3289C1483.58 71.3369 1480.6 68.3622 1476.73 68.3622ZM1476.73 84.3022C1471.78 84.3022 1467.76 80.2796 1467.76 75.3289C1467.76 70.3662 1471.78 66.3529 1476.73 66.3529C1481.7 66.3529 1485.71 70.3662 1485.71 75.3289C1485.71 80.2796 1481.7 84.3022 1476.73 84.3022Z" fill="white"></path><path d="M554.972 91.144C554.939 91.1946 554.908 91.236 554.873 91.2733C553.563 92.9933 552.233 94.6906 550.879 96.3933C459.531 210.627 356.071 243.547 301.372 217.296C300.355 216.816 299.361 216.299 298.38 215.771C298.045 215.589 297.725 215.403 297.395 215.217C296.757 214.859 296.125 214.491 295.501 214.115C295.119 213.887 294.736 213.645 294.355 213.408C293.808 213.059 293.264 212.709 292.735 212.352C292.331 212.087 291.931 211.808 291.535 211.535C291.043 211.189 290.561 210.827 290.08 210.481C289.671 210.171 289.267 209.879 288.867 209.557C288.425 209.219 287.989 208.865 287.555 208.501C287.145 208.167 286.723 207.832 286.317 207.492C285.991 207.2 285.68 206.915 285.361 206.632C284.373 205.749 283.415 204.851 282.48 203.921C282.275 203.712 282.065 203.512 281.863 203.293C281.352 202.777 280.848 202.237 280.353 201.689C280.139 201.461 279.923 201.237 279.717 201C279.221 200.437 278.728 199.86 278.24 199.28C278.064 199.067 277.884 198.852 277.705 198.635C277.205 198.02 276.705 197.397 276.217 196.764C276.103 196.605 275.987 196.443 275.868 196.3C272.939 192.403 270.34 188.172 268.075 183.643C272.445 202.187 282.34 217.735 299.775 227.953C358.487 262.329 454.977 222.695 544.685 106C549.723 99.4533 554.408 92.804 558.767 86.08C557.52 87.7773 556.265 89.4653 554.972 91.144ZM268.071 183.625C268.069 183.619 268.069 183.615 268.067 183.609C268.068 183.615 268.069 183.619 268.071 183.625ZM268.073 183.641C268.075 183.641 268.075 183.643 268.075 183.643C268.073 183.637 268.072 183.631 268.071 183.625C268.072 183.629 268.072 183.635 268.073 183.641Z" fill="url(#paint3_linear)"></path><defs><linearGradient id="paint0_linear" x1="426.914" y1="76.2333" x2="309.055" y2="152.779" gradientUnits="userSpaceOnUse"><stop stop-color="#0083CA"></stop><stop offset="0.79803" stop-color="#004F81"></stop><stop offset="1" stop-color="#004F81"></stop></linearGradient><linearGradient id="paint1_linear" x1="525.272" y1="188.888" x2="343.927" y2="188.888" gradientUnits="userSpaceOnUse"><stop stop-color="#FFCD00"></stop><stop offset="0.473931" stop-color="#C12222"></stop><stop offset="1" stop-color="#C12222"></stop></linearGradient><radialGradient id="paint2_radial" cx="0" cy="0" r="1" gradientUnits="userSpaceOnUse" gradientTransform="translate(416.434 67.2568) scale(88.4557 50.5525)"><stop stop-color="white"></stop><stop offset="0.705333" stop-color="white"></stop><stop offset="1" stop-color="white"></stop></radialGradient><linearGradient id="paint3_linear" x1="304.932" y1="162.985" x2="535.56" y2="162.985" gradientUnits="userSpaceOnUse"><stop stop-color="#FFCD00"></stop><stop offset="0.473931" stop-color="#C12222"></stop><stop offset="1" stop-color="#C12222"></stop></linearGradient></defs></svg> 