<svg xmlns="http://www.w3.org/2000/svg" viewBox="0 0 32 32">
  <rect width="32" height="32" rx="4" fill="#003F65"/>
  <g transform="translate(-18, 2) scale(0.08)">
    <path d="M286.999 92.8307C293.215 116.013 305.861 134.944 325.375 146.672C382.168 180.781 441.4 168.296 494.36 124.253C442.008 170.025 379.449 187.947 326.905 165.441C308.327 157.48 292.548 145.119 279.783 129.401C271.48 119.175 264.445 107.549 258.747 94.7653C262.121 116.739 269.3 136.492 280.245 152.852C280.249 152.871 280.252 152.893 280.252 152.913C288.705 165.543 299.413 176.135 312.379 184.135C357.919 212.259 456.243 188.012 541.472 97.0586H541.483C541.691 96.84 541.895 96.616 542.095 96.3933C542.388 96.0853 542.668 95.78 542.956 95.468C543.977 94.3666 544.997 93.26 546.019 92.1347C546.123 92.0227 546.229 91.9106 546.327 91.7986V91.7866C549.917 87.8266 553.483 83.7453 557.019 79.5466L545.723 90.2C526.336 37.8226 475.969 0.481277 416.841 0.481277C356.739 0.481277 305.653 39.0747 286.999 92.8307Z" fill="url(#paint0_linear)"/>
    <path d="M599.535 89.6227L602.302 86.5307L593.931 63.6L597.55 59.564L593.969 56.3693L592.071 58.4933L589.737 52.0987L593.681 47.692C595.165 46.0267 597.345 41.5627 596.466 39.6787C594.486 39 590.29 41.6733 588.807 43.3333L584.863 47.7427L578.251 46.1333L580.158 44.008L576.577 40.8147L572.963 44.8453L549.247 39.0893L546.486 42.176L574.587 57.828L563.793 71.784L554.455 69.928L552.121 72.5333L560.162 76.4813L559.111 77.8347L562.686 81.0293L563.923 79.8387L568.731 87.3907L571.066 84.7867L568.187 75.7053L580.855 63.436L599.535 89.6227Z" fill="white"/>
    <path d="M544.865 108.919C467.263 209.871 384.587 253.107 325.68 240.679C349.937 262.209 381.856 275.301 416.841 275.301C477.731 275.301 529.363 235.697 547.401 180.851C498.187 220.175 436.697 243.547 369.968 243.547C369.673 243.547 369.377 243.537 369.075 243.537C369.259 243.519 369.444 243.499 369.627 243.476C444.101 234.595 508.512 197.164 554.157 142.859C554.213 141.213 554.261 139.552 554.261 137.883C554.261 125.64 552.624 113.773 549.615 102.476C548.051 104.629 546.507 106.787 544.865 108.919Z" fill="url(#paint1_linear)"/>
    <path d="M327.976 67.256C327.976 95.1747 367.572 117.808 416.431 117.808C465.288 117.808 504.893 95.1747 504.893 67.256C504.893 39.34 465.288 16.7067 416.431 16.7067C367.572 16.7067 327.976 39.34 327.976 67.256Z" fill="url(#paint2_radial)"/>
    <path d="M554.972 91.144C554.939 91.1946 554.908 91.236 554.873 91.2733C553.563 92.9933 552.233 94.6906 550.879 96.3933C459.531 210.627 356.071 243.547 301.372 217.296C300.355 216.816 299.361 216.299 298.38 215.771C298.045 215.589 297.725 215.403 297.395 215.217C296.757 214.859 296.125 214.491 295.501 214.115C295.119 213.887 294.736 213.645 294.355 213.408C293.808 213.059 293.264 212.709 292.735 212.352C292.331 212.087 291.931 211.808 291.535 211.535C291.043 211.189 290.561 210.827 290.08 210.481C289.671 210.171 289.267 209.879 288.867 209.557C288.425 209.219 287.989 208.865 287.555 208.501C287.145 208.167 286.723 207.832 286.317 207.492C285.991 207.2 285.68 206.915 285.361 206.632C284.373 205.749 283.415 204.851 282.48 203.921C282.275 203.712 282.065 203.512 281.863 203.293C281.352 202.777 280.848 202.237 280.353 201.689C280.139 201.461 279.923 201.237 279.717 201C279.221 200.437 278.728 199.86 278.24 199.28C278.064 199.067 277.884 198.852 277.705 198.635C277.205 198.02 276.705 197.397 276.217 196.764C276.103 196.605 275.987 196.443 275.868 196.3C272.939 192.403 270.34 188.172 268.075 183.643C272.445 202.187 282.34 217.735 299.775 227.953C358.487 262.329 454.977 222.695 544.685 106C549.723 99.4533 554.408 92.804 558.767 86.08C557.52 87.7773 556.265 89.4653 554.972 91.144ZM268.071 183.625C268.069 183.619 268.069 183.615 268.067 183.609C268.068 183.615 268.069 183.619 268.071 183.625ZM268.073 183.641C268.075 183.641 268.075 183.643 268.075 183.643C268.073 183.637 268.072 183.631 268.071 183.625C268.072 183.629 268.072 183.635 268.073 183.641Z" fill="url(#paint3_linear)"/>
  </g>
  <defs>
    <linearGradient id="paint0_linear" x1="426.914" y1="76.2333" x2="309.055" y2="152.779" gradientUnits="userSpaceOnUse">
      <stop stop-color="#0083CA"/>
      <stop offset="0.79803" stop-color="#004F81"/>
      <stop offset="1" stop-color="#004F81"/>
    </linearGradient>
    <linearGradient id="paint1_linear" x1="525.272" y1="188.888" x2="343.927" y2="188.888" gradientUnits="userSpaceOnUse">
      <stop stop-color="#FFCD00"/>
      <stop offset="0.473931" stop-color="#C12222"/>
      <stop offset="1" stop-color="#C12222"/>
    </linearGradient>
    <radialGradient id="paint2_radial" cx="0" cy="0" r="1" gradientUnits="userSpaceOnUse" gradientTransform="translate(416.434 67.2568) scale(88.4557 50.5525)">
      <stop stop-color="white"/>
      <stop offset="0.705333" stop-color="white"/>
      <stop offset="1" stop-color="white"/>
    </radialGradient>
    <linearGradient id="paint3_linear" x1="304.932" y1="162.985" x2="535.56" y2="162.985" gradientUnits="userSpaceOnUse">
      <stop stop-color="#FFCD00"/>
      <stop offset="0.473931" stop-color="#C12222"/>
      <stop offset="1" stop-color="#C12222"/>
    </linearGradient>
  </defs>
</svg>
